<svg width="100" height="100" xmlns="http://www.w3.org/2000/svg">
  <defs>
    <linearGradient id="stone-grad" x1="0%" y1="0%" x2="100%" y2="100%">
      <stop offset="0%" stop-color="#666666" />
      <stop offset="100%" stop-color="#444444" />
    </linearGradient>
    <linearGradient id="ore-vein" x1="0%" y1="0%" x2="100%" y2="0%">
      <stop offset="0%" stop-color="#7e7e7e" />
      <stop offset="50%" stop-color="#989898" />
      <stop offset="100%" stop-color="#7e7e7e" />
    </linearGradient>
  </defs>
  
  <pattern id="ore-pattern" patternUnits="userSpaceOnUse" width="100" height="100">
    <rect width="100%" height="100%" fill="url(#stone-grad)"/>
    
    <!-- Stone texture base -->
    <g fill="#555555" opacity="0.5">
      <circle cx="10" cy="10" r="8" />
      <circle cx="30" cy="15" r="10" />
      <circle cx="50" cy="8" r="7" />
      <circle cx="70" cy="12" r="9" />
      <circle cx="90" cy="10" r="8" />
      
      <circle cx="15" cy="30" r="9" />
      <circle cx="35" cy="35" r="7" />
      <circle cx="55" cy="28" r="10" />
      <circle cx="75" cy="32" r="8" />
      <circle cx="95" cy="30" r="9" />
      
      <circle cx="10" cy="50" r="7" />
      <circle cx="30" cy="55" r="8" />
      <circle cx="50" cy="48" r="9" />
      <circle cx="70" cy="52" r="10" />
      <circle cx="90" cy="50" r="8" />
      
      <circle cx="15" cy="70" r="10" />
      <circle cx="35" cy="75" r="8" />
      <circle cx="55" cy="68" r="9" />
      <circle cx="75" cy="72" r="7" />
      <circle cx="95" cy="70" r="10" />
      
      <circle cx="10" cy="90" r="9" />
      <circle cx="30" cy="95" r="7" />
      <circle cx="50" cy="88" r="8" />
      <circle cx="70" cy="92" r="9" />
      <circle cx="90" cy="90" r="7" />
    </g>
    
    <!-- Stone cracks and details -->
    <g stroke="#333333" stroke-width="0.7" fill="none">
      <path d="M5 5 L15 15 L25 5 L35 15" />
      <path d="M45 5 L55 15 L65 5 L75 15 L85 5 L95 15" />
      <path d="M5 25 L15 35 L25 25 L35 35 L45 25" />
      <path d="M55 25 L65 35 L75 25 L85 35 L95 25" />
      <path d="M5 45 L15 55 L25 45 L35 55 L45 45 L55 55" />
      <path d="M65 45 L75 55 L85 45 L95 55" />
      <path d="M5 65 L15 75 L25 65 L35 75 L45 65" />
      <path d="M55 65 L65 75 L75 65 L85 75 L95 65" />
      <path d="M5 85 L15 95 L25 85 L35 95 L45 85 L55 95" />
      <path d="M65 85 L75 95 L85 85 L95 95" />
    </g>
    
    <!-- Ore veins -->
    <g stroke="url(#ore-vein)" stroke-width="2" stroke-opacity="0.7" fill="none">
      <path d="M0 20 C 10 18, 20 22, 30 20 C 40 18, 50 22, 60 20 C 70 18, 80 22, 90 20 C 100 18, 110 22, 120 20" />
      <path d="M20 0 C 18 10, 22 20, 20 30 C 18 40, 22 50, 20 60 C 18 70, 22 80, 20 90 C 18 100, 22 110, 20 120" />
      <path d="M0 60 C 10 58, 20 62, 30 60 C 40 58, 50 62, 60 60 C 70 58, 80 62, 90 60 C 100 58, 110 62, 120 60" />
      <path d="M80 0 C 78 10, 82 20, 80 30 C 78 40, 82 50, 80 60 C 78 70, 82 80, 80 90 C 78 100, 82 110, 80 120" />
    </g>
    
    <!-- Highlights and shadows for depth -->
    <g fill="#777777" opacity="0.3">
      <rect x="10" y="10" width="5" height="5" rx="1" />
      <rect x="40" y="15" width="4" height="4" rx="1" />
      <rect x="70" y="5" width="6" height="6" rx="1" />
      <rect x="20" y="35" width="5" height="5" rx="1" />
      <rect x="50" y="40" width="4" height="4" rx="1" />
      <rect x="80" y="30" width="6" height="6" rx="1" />
      <rect x="15" y="60" width="5" height="5" rx="1" />
      <rect x="45" y="65" width="4" height="4" rx="1" />
      <rect x="75" y="55" width="6" height="6" rx="1" />
      <rect x="25" y="85" width="5" height="5" rx="1" />
      <rect x="55" y="90" width="4" height="4" rx="1" />
      <rect x="85" y="80" width="6" height="6" rx="1" />
    </g>
    
    <g fill="#333333" opacity="0.3">
      <rect x="25" y="15" width="5" height="5" rx="1" />
      <rect x="55" y="20" width="4" height="4" rx="1" />
      <rect x="85" y="10" width="6" height="6" rx="1" />
      <rect x="35" y="40" width="5" height="5" rx="1" />
      <rect x="65" y="45" width="4" height="4" rx="1" />
      <rect x="95" y="35" width="6" height="6" rx="1" />
      <rect x="30" y="65" width="5" height="5" rx="1" />
      <rect x="60" y="70" width="4" height="4" rx="1" />
      <rect x="90" y="60" width="6" height="6" rx="1" />
      <rect x="40" y="90" width="5" height="5" rx="1" />
      <rect x="70" y="95" width="4" height="4" rx="1" />
      <rect x="10" y="85" width="6" height="6" rx="1" />
    </g>
    
    <!-- Metal flecks and specular highlights -->
    <g fill="#aaaaaa" opacity="0.6">
      <circle cx="12" cy="12" r="1" />
      <circle cx="42" cy="18" r="0.8" />
      <circle cx="72" cy="7" r="1.2" />
      <circle cx="22" cy="38" r="1" />
      <circle cx="52" cy="42" r="0.8" />
      <circle cx="82" cy="32" r="1.2" />
      <circle cx="17" cy="62" r="1" />
      <circle cx="47" cy="68" r="0.8" />
      <circle cx="77" cy="57" r="1.2" />
      <circle cx="27" cy="88" r="1" />
      <circle cx="57" cy="92" r="0.8" />
      <circle cx="87" cy="82" r="1.2" />
    </g>
  </pattern>
  
  <rect width="100%" height="100%" fill="url(#ore-pattern)" />
</svg> 